<svg xmlns="http://www.w3.org/2000/svg" xml:space="preserve" width="684.403" height="771.345" fill-rule="evenodd" clip-rule="evenodd" image-rendering="optimizeQuality" shape-rendering="geometricPrecision" text-rendering="geometricPrecision" viewBox="0 0 4420.25 4981.77"><path fill="#fefefe" d="M2458.53 2728.78c275.86 34.34 525.26 150.16 734.72 292.56 21.08 14.33 40.12 28.97 59.32 44.01l97.79 80.79 90.2 88.31c4.56 4.68 8.72 7.39 13.43 12.24 10.78 11.1 53.76 62.54 60.29 66.19-3.61 9.16-4.91 9.44-11.43 16.03-5.1 5.16-6.79 8.55-11.59 14.26l-24.37 27.27c-4.76 5.49-8.35 7.24-13.36 12.37-27.96 28.63-58.53 62.9-90.61 90.29-45.07 38.48-58.64 51.93-111.14 93.2-181.78 142.88-394.12 240.6-621.32 301.72-57.58 15.49-113.33 21.85-171.87 34.64l-.06-1173.86zM981.04 3233.14c46.86-50.01 80.55-79.33 132.16-123.94 70.65-61.06 153.18-116.25 240.28-168.36 83.66-50.05 180.37-93.86 280.51-130.46 85.32-31.19 237.53-72.88 327.91-81.57l.07 1173.08c-105.53-10.88-237.28-48.83-330.31-82.28-192.34-69.16-373.25-174.48-521.63-300.39-19.77-16.78-36.41-32.57-55-48.28l-126.74-129.17c-7.14-8.38-17.89-18.53-22.1-28.89l74.85-79.73zm1477.5-2714.36c130.81 15.8 277.35 59.49 389.36 104.77 123.51 49.93 223.85 107.33 321.85 171.34 32.23 21.05 76.68 54.37 106.67 78.98l114.86 101.08c63.24 64.73 74.52 73.75 134.18 142.95 96.38 111.78 186.31 262.33 248.67 399.75l43.59 108.87c44.81 123.52 77.58 259.49 92.49 400.43 24.72 233.62 3.17 440.27-58.26 662.25-8.72 31.51-18.92 61.82-29.81 92.31-10.18 28.49-26.14 62.58-33.54 89.55-7.39-3.41-79.61-75.53-97.37-91.67l-100.67-84.84c-22.29-18.64-44.97-35.34-69.09-53.13-193.82-142.95-415.4-257.85-654.61-331.75-116.25-35.91-286.29-75.96-408.28-85.25l-.05-1705.65zM1961.95 14.76l-.06 2209.6c-408 37.26-827.07 224.66-1131.86 470.14-63.12 50.84-107.97 90.59-164.45 145.59-10.4 10.13-21.22 22.61-32.02 30.99-28.59-42.01-85.05-250.68-97.43-311.54-25.03-122.99-37.41-247.68-35.46-377.7 4.4-293.8 85.54-572.17 218.93-809.61 49.3-87.75 106.1-168.91 168.02-245.31l47.35-56.04c35.35-38.84 67.5-68.51 101.8-104.78 8.66-9.16 18.08-14.8 27.2-24.51l27.1-24.47c126.54-103.07 215.07-168.35 373.93-246.1l.18-540.98c-65.39 15.36-244.63 102.92-300.48 132.6-95.88 50.94-188.65 111.21-267.26 169.58-21.63 16.06-42.15 30.98-60.83 47.12l-29.91 24.13c-51.35 38.6-157.02 139.71-197.95 184.95l-40.17 41.93c-5.47 5.39-7.83 10.17-12.79 15.48-18.23 19.57-32.83 36.86-50.17 57.84-49.28 59.6-96.92 123.71-139.91 188.88-88.57 134.27-164 277.56-222.08 433.17C59.27 1651.77 7.41 1890.1.83 2155.99c-7.83 316.55 54.49 638.63 173.5 915.6 32.16 74.84 67.79 148.31 107.33 219.11 16.81 30.11 20.39 15.31-11.23 70.2-46.86 81.34-104.5 211.36-136.47 300.39-19.47 54.24-36.54 108.79-53.02 165.37-69.83 239.82-95.88 533.45-72.7 783.97 6.17 66.64 14.26 129.79 25.38 194.26l27.82 134.01c2.5 11.29 4.48 36.61 13.95 42.84l518.98-.03c-11.59-43.76-27.49-84.82-41.36-139.74-38.83-153.82-59.82-329.96-51.05-489.58 5.79-105.59 19-216.51 42.25-318.38 10.31-45.19 68.99-251.21 90.13-273.78l160.32 147.17c32.82 24.65 61.38 50.54 103.78 81.71 192.55 141.51 417.51 258.92 654.61 331.85 122.89 37.79 273.46 74.12 408.25 85.39l.57 574.7 496.69.66.02-575.29c389.12-36.73 766.87-200.77 1063.08-417.56l102.79-80.39c5.52-4.57 10.81-9.5 16.63-13.92 25.02-19.01 128.07-115.97 145.03-134.21 5.63 5.25 10.93 22.56 14.06 30.25l36.21 100.13c108.26 326.23 110.07 691.53 11.81 1021.19-6.87 23.04-16.54 47.54-21.96 69.74l521.19.07c12.22-22.12 39.46-174.12 45-209.33 59.31-376.62 23.44-752.94-104.74-1107.61-22.25-61.58-47.07-122.04-74.49-179.08-22.77-47.37-38.53-80.56-63.95-126.3-32.87-59.15-32.18-25.38 18.46-121.87 14.33-27.31 29.64-56.7 42.23-84.66 86.75-192.62 145.33-362.66 180.68-579.84 50.52-310.32 35.41-621.5-39.96-915.71-143.6-560.52-483.09-967.55-814.26-1215C3124.41 134.5 2611.38-28.43 2080.96 4.08c-35.96 2.2-84.45 3.95-119.03 10.67z"/></svg>